# xmcd CD database file
#
# Track frame offsets:
#	150
#	41239
#	78235
#	97283
#	150004
#	163481
#	203947
#	205866
#	245377
#	280538
#
# Disc length: 4391 seconds
#
# Revision: 0
# Processed by: cddbd v1.5.2PL0 Copyright (c) Steve Scherf et al.
# Submitted via: CDex 1.50
#
DISCID=8311250a
DTITLE=Vaughn D Fahie's S3 Jazz Trio - Sax Skins Strings
DYEAR=2011
DGENRE=Jazz
TTITLE0=Red Clay
TTITLE1=Sax and Skins
TTITLE2=Just the Two of Us
TTITLE3=My Desire
TTITLE4=Take 5,000 - Intro
TTITLE5=Take 5,000
TTITLE6=Do You Breathe? - Intro
TTITLE7=Do You Breathe?
TTITLE8=You Are the Living Word
TTITLE9=Wade in the Water
EXTD=YEAR: 2011
EXTT0=
EXTT1=
EXTT2=
EXTT3=
EXTT4=
EXTT5=
EXTT6=
EXTT7=
EXTT8=
EXTT9=
PLAYORDER=
